<?xml version="1.0" encoding="utf-8"?>
<!-- Generator: Adobe Illustrator 24.1.0, SVG Export Plug-In . SVG Version: 6.00 Build 0)  -->
<svg version="1.1" id="Layer_1" xmlns="http://www.w3.org/2000/svg" xmlns:xlink="http://www.w3.org/1999/xlink" x="0px" y="0px"
	 viewBox="0 0 177.2 59" style="enable-background:new 0 0 177.2 59;" xml:space="preserve">
<style type="text/css">
	.st0{fill:#17494D;}
</style>
<g>
	<path class="st0" d="M40.5,13.7c-1-0.7-2.1-1.1-3.2-1.3c-1.1-0.2-2.2-0.3-3.3-0.3c-3.1,0-6.2-0.3-9.3-1.1c-1.6-0.4-3.1-1.2-4.5-2
		c-3.4-1.8-6.7-3.8-10-5.7C9.9,3.1,9.4,2.9,9,2.6C8.8,2.5,8.6,2.4,8.6,2.2S8.8,1.9,9,1.8c1-0.4,2-0.6,3-0.8c2.7-0.7,5.3-1,8-1
		c3.3-0.1,6.5,0.8,9.6,1.9C36.2,4.3,42.3,7.8,48,12c0.9,0.7,1.9,1.3,3,1.7c2.4,0.8,4.1,2.4,5.5,4.5c1.2,1.8,2.4,3.6,3.6,5.4
		c0.3,0.4,0.4,0.9,0.2,1.3c-0.7,1.9-1.7,3.7-3.1,5.2c-0.3,0.3-0.7,0.5-1.1,0.7c-2.6,1.3-5.2,2.4-8,3.2c-1.7,0.6-3.2,1.5-4.5,2.8
		c-4.4,4.7-8.9,9.3-13.4,13.9c-0.2,0.2-0.4,0.3-0.6,0.2c-0.5-0.2-1.3-0.2-1.5-0.5s0.5-0.8,0.7-1.3c2.5-4.4,1.9-8.7-0.6-12.8
		C28.1,36.1,28,36,27.8,36c2.4,6,1.1,11-3.9,15.1c0.5,0.3,1.1,0.4,1.6,0.5c1.7,0.5,3.5,1,5.2,1.6c1.9,0.6,3.2,1.7,3.7,3.7
		c0.1,0.6-0.1,1.2-0.2,1.8c-0.1,0.4-0.3,0.1-0.5,0.1c-2.3-0.7-4.7-1.5-7-2.2c-4.9-1.5-9.8-3.1-14.8-4.6c-2.4-0.7-3.1-1.3-3-3.9
		C9,47.3,8.7,46.6,8,45.9c-2.1-2.1-4.1-4.4-5.7-6.9c-2.2-3.3-3-6.9-2.1-10.8C1,25.1,2.9,22.8,5.5,21c2-1.4,4.2-2.3,6.7-2.5
		c1.6-0.1,3.1,0.2,4.6,0.6c6.9,1.6,13.8,3,20.8,4.2c0.5,0.1,0.6,0.1,0.6-0.5c-0.1-2.1,0.6-4.1,1.7-5.9c0.2-0.4,0.2-0.6-0.1-0.8
		c-1-0.8-2.3-1.2-3.6-1.4c-1.4-0.1-2.7,0.1-4.1,0.4c-4.2,0.7-8.4,0.5-12.5-0.9c-3.5-1.1-7-2.3-10.5-3.4c-0.3-0.1-0.6-0.2-0.7-0.5
		c0.2-0.5,0.5-0.8,0.8-0.9c1.1-0.7,2.3-1.1,3.6-1.5C13,7.8,13.2,8,13.4,8c3.3,1.6,6.8,3,10.3,4.1c1.8,0.6,3.7,0.7,5.6,0.8
		c1.6,0.1,3.2-0.1,4.8-0.1c2.1-0.1,4.1,0.1,6,0.9C40.2,13.8,40.3,13.7,40.5,13.7z"/>
	<path class="st0" d="M134.6,43.2c-6.4,3.4-13.4,1.4-16.9-3c-3.6-4.4-3.9-11.1-0.6-15.8c2-2.8,4.7-4.6,8-5.3
		c3.3-0.7,6.5-0.2,9.5,1.5c0-0.5,0-1,0-1.4c0-0.3,0.1-0.4,0.3-0.4c1.9,0,3.8,0,5.6,0c0.3,0,0.4,0.1,0.3,0.3v0.1c0,9,0,17.9,0,26.9
		c0,6.3-4.1,11.2-10.2,12.5c-5.9,1.2-11.8-1.1-14.6-6.9c-0.4-0.8-0.4-0.8,0.3-1.2c1.2-0.7,2.4-1.4,3.5-2.2c0.4-0.2,0.5-0.2,0.8,0.2
		c1.2,2.2,2.9,3.8,5.5,4.4c4.3,1,8.3-1.9,8.4-6.4C134.6,45.4,134.6,44.4,134.6,43.2z M127.8,39.1c3.1,0,5.5-1.7,6.4-4.6
		c0.4-1.3,0.5-2.7,0.3-4.1c-0.5-2.6-1.8-4.5-4.4-5.3c-2.6-0.8-5.1-0.4-7.1,1.6c-1.7,1.7-2.1,3.9-1.9,6.3
		C121.5,36.6,124.2,39.1,127.8,39.1z"/>
	<path class="st0" d="M161.9,43.2c-2.5,1.4-5.1,1.9-7.8,1.7c-5.7-0.3-10.8-4.7-11.7-10.4c-0.8-4.6,0.3-8.7,3.7-12
		c2.8-2.8,6.3-3.8,10.2-3.6c1.9,0.1,3.7,0.6,5.3,1.5c0.4,0.2,0.4,0,0.4-0.3c0-0.4-0.2-1,0.1-1.2s0.8-0.1,1.3-0.1c1.5,0,3,0,4.5,0
		c0.4,0,0.5,0.1,0.5,0.5c0,8.9,0,17.8,0,26.7c0,6.2-3.8,11.1-9.7,12.6c-6,1.5-12.3-0.8-15.2-6.9c-0.2-0.5-0.2-0.8,0.3-1
		c1.3-0.7,2.5-1.5,3.7-2.3c0.3-0.2,0.4-0.1,0.6,0.2c1.1,2,2.7,3.6,4.9,4.3c4.5,1.5,8.7-1.4,9-6.1C162,45.5,161.9,44.4,161.9,43.2z
		 M161.9,31.9c0-0.6-0.1-1.2-0.2-1.8c-0.5-2.8-2.5-4.7-5.3-5.3c-2.8-0.5-5.6,0.6-7,2.9c-1.1,1.8-1.3,3.8-0.9,5.8c1.2,6,7.8,6.7,11,4
		C161.2,36.1,161.9,34.1,161.9,31.9z"/>
	<path class="st0" d="M113.5,31.9c0,7.4-5.7,13-13.1,13s-13.1-5.7-13-13.1c0-7.4,5.7-13,13.1-13C108,18.9,113.6,24.5,113.5,31.9z
		 M100.5,39.1c3.1,0,5.5-1.7,6.4-4.6c0.4-1.2,0.5-2.5,0.3-3.7c-0.4-2.5-1.6-4.5-4-5.4c-2.5-1-4.9-0.7-7,1c-2,1.6-2.6,3.9-2.4,6.3
		C93.9,36.3,96.8,39.1,100.5,39.1z"/>
	<path class="st0" d="M66.3,27.9c0-5.4,0-10.8,0-16.1c0-0.5,0.1-0.6,0.6-0.6c1.7,0,3.5,0,5.2,0c0.5,0,0.6,0.1,0.6,0.6
		c0,8.6,0,17.2,0,25.8c0,0.6,0.2,0.7,0.7,0.7c4.3,0,8.5,0,12.8,0c0.4,0,0.6,0.1,0.6,0.5c0,1.8,0,3.6,0,5.4c0,0.4-0.1,0.5-0.5,0.5
		c-6.5,0-13,0-19.5,0c-0.4,0-0.5-0.1-0.5-0.5C66.3,38.6,66.3,33.2,66.3,27.9z"/>
	<path class="st0" d="M170.8,31.7c0-4.1,0-8.2,0-12.3c0-0.4,0.1-0.5,0.5-0.5c1.8,0,3.6,0,5.5,0c0.4,0,0.5,0.1,0.5,0.5
		c0,8.2,0,16.5,0,24.7c0,0.4-0.1,0.5-0.5,0.5c-1.8,0-3.6,0-5.5,0c-0.4,0-0.5-0.1-0.5-0.5C170.8,39.9,170.8,35.8,170.8,31.7z"/>
	<path class="st0" d="M170.8,14.4c0-1.8,1.4-3.3,3.2-3.3s3.2,1.5,3.2,3.3s-1.4,3.3-3.2,3.3C172.2,17.7,170.8,16.2,170.8,14.4z"/>
	<path class="st0" d="M20,56.5c-1.2,0.6-2.3,1.2-3.5,1.4c-0.7,0.1-1.4-0.3-1.5-1s0.2-1.4,0.9-1.5c0.2-0.1,0.5,0,0.7,0
		C17.7,55.8,18.8,56.2,20,56.5z"/>
</g>
</svg>
