<?xml version="1.0" encoding="utf-8"?>
<!-- Generator: Adobe Illustrator 24.1.0, SVG Export Plug-In . SVG Version: 6.00 Build 0)  -->
<svg version="1.1" id="Layer_1" xmlns:v="https://vecta.io/nano"
	 xmlns="http://www.w3.org/2000/svg" xmlns:xlink="http://www.w3.org/1999/xlink" x="0px" y="0px" viewBox="0 0 71.83 21.26"
	 style="enable-background:new 0 0 71.83 21.26;" xml:space="preserve">
<style type="text/css">
	.st0{fill:#17494D;}
</style>
<g>
	<path class="st0" d="M34.98,9.55c-1.95,1.5-3.95,1.8-6.01,0.65c-2.42-1.35-3.19-5.2-1.62-7.85c1.38-2.34,4.62-3.05,7.07-1.54
		c0.4,0.25,0.6,0.61,1.01-0.17c0.37-0.71,1.37-0.38,2.1-0.31c0.7,0.07,0.58,0.69,0.58,1.16c0.01,2.95,0.03,5.89-0.01,8.84
		c-0.04,2.55-1.56,4.47-4.04,5.08c-1.96,0.49-3.89,0.28-5.77-0.51c-0.69-0.29-0.96-0.73-0.56-1.41c0.36-0.63,0.48-1.66,1.66-1.12
		c0.76,0.35,1.58,0.49,2.42,0.48C33.91,12.83,34.88,11.88,34.98,9.55z M35.03,5.5c0.03-1.62-0.95-2.66-2.55-2.71
		c-1.68-0.05-2.83,1.05-2.82,2.7c0,1.55,1.07,2.65,2.61,2.7C33.79,8.24,35,7.05,35.03,5.5z"/>
	<path class="st0" d="M6.65,5.56C7.53,4.1,8.47,2.64,9.29,1.12c0.61-1.14,1.57-0.88,2.47-0.79c0.95,0.09,0.69,0.95,0.75,1.53
		c0.25,2.63,0.44,5.27,0.66,7.91c0.06,0.71,0.02,1.25-0.94,1.28c-1.87,0.06-2.08,0-2.14-1.15C10,8.42,9.94,6.95,9.86,5.29
		C9.05,6.2,8.62,7.14,8.09,8.02c-0.75,1.25-2.45,1.27-3.2,0.01C4.42,7.24,3.97,6.44,3.3,5.69C3.2,7.1,3.06,8.51,3.02,9.92
		c-0.05,1.66-1.28,0.98-2.09,1.09c-1.01,0.14-0.96-0.59-0.91-1.26c0.22-2.71,0.45-5.43,0.69-8.14c0.05-0.53-0.1-1.29,0.73-1.31
		c0.88-0.02,1.91-0.43,2.5,0.74c0.65,1.28,1.37,2.52,2.08,3.77C6.16,5.08,6.22,5.41,6.65,5.56z"/>
	<path class="st0" d="M50.71,5.7c0,1.36,0.01,2.72,0,4.08c0,0.48,0.12,1.12-0.56,1.17C49.42,11,48.48,11.44,48,10.54
		c-0.32-0.6-0.49-0.44-0.9-0.18c-3.3,2.12-7.05,0.51-7.8-3.34c-0.32-1.65-0.15-3.25,0.73-4.7c1.38-2.28,4.57-3.03,6.88-1.6
		c0.44,0.27,0.65,0.53,1.11-0.11c0.52-0.72,1.48-0.4,2.22-0.25c0.67,0.13,0.43,0.79,0.44,1.25C50.72,2.98,50.71,4.34,50.71,5.7z
		 M47.61,5.72c0.02-1.8-0.94-2.89-2.57-2.93s-2.71,1.06-2.74,2.78c-0.04,1.74,0.99,2.92,2.58,2.96C46.49,8.57,47.59,7.43,47.61,5.72
		z"/>
	<path class="st0" d="M22.49,1.26c0.4-1.45,1.5-0.99,2.36-0.93c0.92,0.07,0.63,0.89,0.64,1.44c0.02,2.53,0.03,5.07,0,7.6
		c-0.01,0.61,0.34,1.53-0.71,1.61c-0.87,0.07-2.01,0.46-2.23-1.01c-3,1.85-5.57,1.71-7.26-0.36c-1.81-2.22-1.79-5.96,0.06-7.97
		C17.16-0.34,19.94-0.51,22.49,1.26z M22.39,5.56c-0.02-1.71-1.03-2.77-2.63-2.77c-1.63,0-2.69,1.12-2.69,2.85
		c0,1.82,1.06,2.93,2.74,2.9C21.38,8.5,22.41,7.31,22.39,5.56z"/>
	<path class="st0" d="M71.82,5.61c0,1.36,0.01,2.72-0.01,4.08c-0.01,0.46,0.18,1.15-0.44,1.25c-0.73,0.11-1.67,0.46-2.18-0.37
		c-0.33-0.53-0.46-0.45-0.89-0.17c-3.35,2.18-6.93,0.39-7.12-3.58c-0.09-1.85-0.03-3.7-0.06-5.55c-0.02-0.74,0.34-1.02,1.03-1.01
		c0.3,0,0.61,0.03,0.91,0c0.91-0.07,1.3,0.29,1.27,1.25c-0.06,1.51-0.03,3.02,0,4.53c0.03,1.58,0.76,2.44,2.05,2.49
		c1.29,0.05,2.24-0.88,2.31-2.4c0.07-1.55,0.06-3.1,0.01-4.65c-0.03-0.87,0.28-1.28,1.16-1.22c0.3,0.02,0.61,0.03,0.91,0
		c0.86-0.08,1.11,0.35,1.08,1.15C71.79,2.81,71.82,4.21,71.82,5.61z"/>
	<path class="st0" d="M55.32,4.06c0,0.87-0.01,1.74,0,2.6c0.01,0.96,0.51,1.47,1.47,1.49c0.91,0.02,1.81,0.02,2.72,0
		c1.12-0.02,1,0.77,1,1.49c0,0.69,0.09,1.41-0.97,1.38c-1.32-0.04-2.64,0.04-3.96-0.03c-2.03-0.1-3.41-1.52-3.47-3.61
		c-0.06-2.04,0-4.08-0.03-6.11c-0.01-0.74,0.33-1.02,1.02-1.01c0.41,0,0.83,0,1.25-0.01c0.65-0.01,0.97,0.31,0.96,0.97
		C55.3,2.16,55.31,3.11,55.32,4.06C55.31,4.06,55.31,4.06,55.32,4.06z"/>
	<path class="st0" d="M70.9,18.5c-1.58,0.06-3.15,0.05-4.73,0.07c-4.62-0.02-9.25-0.03-13.87-0.04c0-0.01,0-0.01,0-0.02
		c-0.23-0.01-0.45-0.03-0.68-0.03c-16.23,0.02-32.45,0.04-48.67,0.06c-0.72,0-1.44-0.04-2.15,0.05c-1.16,0.14-0.61,1.09-0.71,1.71
		c-0.08,0.56,0.11,0.89,0.82,0.89c7.29,0,14.59,0.06,21.89,0.06c9.83,0.01,19.66-0.02,29.49-0.03c4.62-0.01,9.24-0.02,13.87-0.03
		c1.58,0.02,3.15,0.02,4.73,0.07c0.68,0.02,0.97-0.25,0.9-0.93c-0.03-0.3-0.03-0.6,0-0.9C71.86,18.76,71.6,18.48,70.9,18.5z"/>
</g>
</svg>
