<?xml version="1.0" encoding="utf-8"?>
<!-- Generator: Adobe Illustrator 24.1.0, SVG Export Plug-In . SVG Version: 6.00 Build 0)  -->
<svg version="1.1" id="Layer_1" xmlns:v="https://vecta.io/nano"
	 xmlns="http://www.w3.org/2000/svg" xmlns:xlink="http://www.w3.org/1999/xlink" x="0px" y="0px" viewBox="0 0 37.43 28.71"
	 style="enable-background:new 0 0 37.43 28.71;" xml:space="preserve">
<style type="text/css">
	.st0{fill:#17494D;}
</style>
<g>
	<path class="st0" d="M0.01,14.33c-0.05-0.8,0.26-1.49,0.74-2.08c1.02-1.23,1.49-2.66,1.63-4.22c0.15-1.63,1.01-2.66,2.61-3
		c1.61-0.34,2.87-1.15,3.86-2.47c0.81-1.09,1.94-1.53,3.29-1.22c1.78,0.41,3.4,0.19,4.95-0.85c1.03-0.69,2.2-0.67,3.24,0.02
		c1.48,0.99,3.05,1.25,4.76,0.84c1.42-0.34,2.6,0.08,3.47,1.23c0.97,1.29,2.2,2.08,3.78,2.41c1.63,0.35,2.52,1.39,2.66,3.07
		c0.13,1.53,0.65,2.89,1.59,4.14c1.12,1.48,1.13,2.72,0.02,4.22c-0.95,1.28-1.48,2.67-1.62,4.23c-0.14,1.63-1.01,2.66-2.6,3.01
		c-1.61,0.34-2.87,1.15-3.86,2.47c-0.81,1.09-1.94,1.53-3.29,1.22c-1.78-0.41-3.4-0.19-4.95,0.84c-1.03,0.69-2.21,0.67-3.24-0.02
		c-1.51-1.02-3.12-1.23-4.86-0.83c-1.39,0.32-2.53-0.12-3.37-1.25c-0.96-1.29-2.2-2.08-3.78-2.41c-1.64-0.35-2.52-1.39-2.66-3.07
		c-0.13-1.57-0.64-2.98-1.65-4.21C0.24,15.82-0.05,15.12,0.01,14.33z M28.13,19.7c0.69,0,1.37,0,2.06,0c0.25,0,0.45-0.05,0.44-0.37
		c-0.01-0.22,0.04-0.51-0.28-0.52c-0.74-0.01-0.85-0.59-1.04-1.11c-0.98-2.79-1.97-5.58-2.94-8.38c-0.16-0.47-0.27-0.89-0.95-0.86
		c-0.61,0.02-0.99,0.11-1.25,0.76c-1.14,2.84-2.34,5.65-3.52,8.47c-0.21,0.51-0.35,1.08-1.07,1.09c-0.33,0.01-0.3,0.27-0.31,0.5
		c-0.02,0.29,0.09,0.42,0.39,0.42c0.88-0.01,1.76,0,2.64,0c0.28,0,0.43-0.1,0.42-0.4c-0.01-0.23,0.02-0.5-0.31-0.5
		c-1.15-0.01-0.69-0.64-0.53-1.23c0.22-0.81,0.64-1.2,1.52-1.05c0.38,0.07,0.78,0.01,1.17,0.01c1.58,0,1.58,0,1.92,1.5
		c0.09,0.39,0.13,0.73-0.43,0.74c-0.45,0.01-0.41,0.33-0.39,0.63c0.03,0.41,0.36,0.3,0.59,0.3C26.89,19.71,27.51,19.71,28.13,19.7z
		 M16.06,10.1c0-0.33-0.02-0.65,0-0.98c0.04-0.73-0.5-0.83-0.86-0.53c-0.47,0.41-0.8,0.22-1.23,0.08c-2.35-0.79-4.86,0.27-5.93,2.5
		c-0.71,1.47-0.81,3.03-0.44,4.59c0.7,2.99,3.04,4.47,6.1,3.93c0.38-0.07,0.77-0.23,1.15-0.21c0.41,0.02,0.91,0.53,1.21,0.08
		c0.22-0.32,0.08-0.88,0.09-1.33c0.01-0.42,0-0.85,0-1.27c0-0.27-0.11-0.43-0.41-0.41c-0.23,0.02-0.48-0.03-0.56,0.26
		c-0.06,0.19-0.09,0.38-0.14,0.57c-0.26,0.93-0.86,1.42-1.82,1.5c-0.96,0.08-1.72-0.28-2.06-1.16c-0.91-2.37-0.99-4.77,0.03-7.14
		c0.39-0.92,1.14-1.28,2.15-1.14c1,0.14,1.45,0.78,1.65,1.68c0.08,0.35,0.2,0.59,0.64,0.57c0.53-0.02,0.43-0.38,0.44-0.69
		C16.07,10.69,16.06,10.39,16.06,10.1z M21.39,12.92c-1.13-0.41-1.71,0.14-2,1.18c-0.64-0.65-1.08-1.1-0.08-1.69
		c0.59-0.35,0.56-1.05,0.05-1.52c-0.59-0.55-1.32-0.52-2.01-0.16c-0.65,0.34-0.82,0.94-0.58,1.59c0.14,0.38,0.14,0.55-0.24,0.76
		c-0.69,0.38-1.07,0.99-0.79,1.8c0.27,0.79,0.95,1.08,1.71,1.05c0.94-0.04,1.86-0.43,2.82-0.09c0.23,0.08,0.47-0.07,0.52-0.32
		c0.07-0.31-0.22-0.25-0.38-0.29c-0.73-0.16-0.52-0.43-0.25-0.93C20.47,13.72,21.15,13.51,21.39,12.92z"/>
	<path class="st0" d="M24.42,11.32c0.49,1.61,0.89,2.96,1.32,4.38c-0.89,0-1.7,0-2.51,0c-0.26,0-0.58,0.03-0.42-0.39
		C23.3,14.06,23.82,12.81,24.42,11.32z"/>
	<path class="st0" d="M17.4,13.37c0.36,0.51,0.75,0.99,1.04,1.52c0.13,0.24-0.21,0.37-0.41,0.42c-0.44,0.11-0.85,0.06-1.09-0.38
		c-0.27-0.49-0.15-0.94,0.18-1.35C17.17,13.5,17.26,13.46,17.4,13.37z"/>
	<path class="st0" d="M18.7,11.62c-0.01,0.36-0.2,0.74-0.5,0.74c-0.37,0-0.41-0.45-0.43-0.76c-0.02-0.31,0.12-0.58,0.49-0.58
		C18.67,11.01,18.7,11.31,18.7,11.62z"/>
</g>
</svg>
