<?xml version="1.0" encoding="utf-8"?>
<!-- Generator: Adobe Illustrator 24.1.0, SVG Export Plug-In . SVG Version: 6.00 Build 0)  -->
<svg version="1.1" id="Layer_1" xmlns="http://www.w3.org/2000/svg" xmlns:xlink="http://www.w3.org/1999/xlink" x="0px" y="0px"
	 viewBox="0 0 193.8 28.2" style="enable-background:new 0 0 193.8 28.2;" xml:space="preserve">
<style type="text/css">
	.st0{fill:#17494D;}
</style>
<g>
	<path class="st0" d="M193.8,27.2c-0.4,0.4-0.8,0.5-1.4,0.5c-5.2,0-10.3,0-15.5,0c-1.1,0-1.3-0.2-1.3-1.3c0-8.3,0-16.5,0-24.8
		c0-1.1,0.2-1.3,1.3-1.3c5.1,0,10.2,0,15.3,0c1.1,0,1.3,0.2,1.3,1.3s0,2.2,0,3.3c0,1-0.2,1.3-1.3,1.3c-3.1,0-6.2,0-9.2,0
		c-0.7,0-0.9,0.1-0.9,0.9c0.1,1,0.1,2,0,3.1c0,0.6,0.1,0.9,0.8,0.8c2.5,0,4.9,0,7.4,0c1.2,0,1.3,0.1,1.3,1.3c0,1.1,0,2.3,0,3.4
		c0,0.8-0.3,1.1-1.1,1.1c-2.5,0-5,0-7.6,0c-0.6,0-0.9,0.1-0.8,0.8c0.1,1.1,0.1,2.2,0,3.3c0,0.7,0.1,1,0.9,1c3.1-0.1,6.2,0,9.3,0
		c0.5,0,1,0.1,1.3,0.5C193.8,24,193.8,25.6,193.8,27.2z"/>
	<path class="st0" d="M112.8,28.1c-0.5-0.3-1-0.3-1.6-0.4c-5.5-1.5-8.8-5.1-10-10.6c-1.3-5.9,1.2-11.8,6.3-15
		c5.2-3.3,11.9-2.7,16.5,1.4c0.9,0.8,0.9,1.1,0.1,2c-0.8,0.8-1.6,1.6-2.3,2.4c-0.5,0.6-1,0.6-1.6,0.1c-2.2-1.8-4.7-2.2-7.4-1.5
		c-3.5,1-5.5,4.5-5.1,8.4c0.4,3.7,2.4,6.1,5.5,6.9c2.7,0.6,5-0.1,7.2-1.7c1-0.8,1.1-0.8,1.9,0.2c0.7,0.7,1.4,1.5,2.2,2.2
		c0.8,0.9,0.8,1.1-0.1,1.9c-2.1,1.9-4.6,3.1-7.4,3.6c-0.2,0-0.4,0-0.4,0.2C115.4,28.1,114.1,28.1,112.8,28.1z"/>
	<path class="st0" d="M151,13.2c0,4.4,0,8.6,0,12.9c0,1.5-0.1,1.6-1.7,1.6c-1.2,0-2.4,0-3.6,0c-1,0-1.2-0.2-1.2-1.2
		c0-8.3,0-16.6,0-24.9c0-0.9,0.2-1.1,1.2-1.2c1.2-0.1,2.1,0.3,3,1.2c4.2,4.2,8.4,8.4,12.6,12.6c0.2,0.2,0.5,0.4,0.7,0.7
		c0.2-0.3,0.1-0.6,0.1-0.9c0-4.1,0-8.2,0-12.2c0-1.1,0.2-1.4,1.4-1.4c1.3,0,2.6,0,4,0c0.8,0,1.2,0.3,1.2,1.2c0,8.4,0,16.7,0,25.1
		c0,0.8-0.4,1.1-1.1,1.1c-1,0.1-1.8-0.2-2.5-0.9c-4.4-4.3-8.8-8.6-13.2-12.9C151.5,13.7,151.3,13.5,151,13.2z"/>
	<path class="st0" d="M76.5,14c0-4.1,0-8.2,0-12.2c0-1.2,0.2-1.4,1.4-1.4c5,0,10.1,0,15.1,0c1.2,0,1.4,0.2,1.4,1.3c0,1,0,2.1,0,3.1
		c0,1.2-0.2,1.4-1.4,1.4c-3.1,0-6.1,0-9.2,0c-0.6,0-0.9,0.1-0.9,0.8c0.1,1.1,0,2.2,0,3.2c0,0.5,0.1,0.7,0.7,0.7c2.5,0,5,0,7.5,0
		c1.2,0,1.3,0.2,1.4,1.3c0,1.1,0,2.2,0,3.2c0,1.1-0.2,1.3-1.3,1.3c-2.5,0-4.9,0-7.4,0c-0.7,0-0.9,0.2-0.9,0.9c0.1,1.2,0,2.3,0,3.5
		c0,0.6,0.2,0.7,0.7,0.7c3.1,0,6.2,0,9.3,0c1.4,0,1.5,0.2,1.5,1.5c0,1.1,0,2.2,0,3.2c0,0.8-0.3,1.1-1.1,1.1c-5.3,0-10.6,0-15.9,0
		c-0.9,0-1.1-0.3-1.1-1.3C76.5,22.3,76.5,18.2,76.5,14z"/>
	<path class="st0" d="M27,14c0-4.1,0-8.2,0-12.3c0-1.1,0.2-1.3,1.3-1.3c5.1,0,10.3,0,15.4,0c1.1,0,1.3,0.2,1.3,1.3s0,2.2,0,3.3
		s-0.2,1.3-1.3,1.3c-3.1,0-6.3,0-9.4,0c-0.7,0-0.8,0.2-0.8,0.8c0.1,1,0.1,2,0,3.1c-0.1,0.8,0.2,0.9,0.9,0.9c2.5,0,4.9,0,7.4,0
		c1.1,0,1.3,0.2,1.3,1.3s0,2.3,0,3.4c0,0.8-0.3,1.2-1.2,1.1c-2.6,0-5.1,0-7.7,0c-0.6,0-0.8,0.1-0.8,0.8c0.1,1.2,0,2.4,0,3.7
		c0,0.6,0.2,0.7,0.7,0.7c3.2,0,6.4,0,9.6,0c1.2,0,1.4,0.2,1.4,1.4c0,1,0,2.1,0,3.1c0,1.2-0.2,1.4-1.4,1.4c-4.4,0-8.8,0-13.2,0
		c-0.8,0-1.5,0-2.3,0c-1.1,0-1.3-0.2-1.3-1.3C27,22.3,27,18.1,27,14z"/>
	<path class="st0" d="M6.8,16.9c0-3.2,0-6.4,0-9.6c0-0.7-0.2-0.9-0.9-0.9c-1.6,0-3.2,0-4.8,0C0.3,6.4,0,6.1,0,5.3C0,4,0,2.8,0,1.5
		c0-1,0.2-1.3,1.3-1.3c4.5,0,9,0,13.5,0c1.4,0,2.9,0,4.3,0c1,0,1.2,0.2,1.2,1.2c0,1.3,0,2.5,0,3.8c0,0.8-0.3,1.2-1.1,1.2
		c-1.6,0-3.2,0-4.8,0c-0.6,0-0.8,0.2-0.8,0.8c0,6.4,0,12.7,0,19.1c0,1.3-0.2,1.4-1.5,1.4c-1.4,0-2.8,0-4.1,0c-1,0-1.2-0.2-1.2-1.2
		C6.8,23.3,6.8,20.1,6.8,16.9z"/>
	<path class="st0" d="M52.4,14c0-4.1,0-8.2,0-12.3c0-1.1,0.2-1.3,1.3-1.3c1.3,0,2.7,0,4,0s1.5,0.2,1.5,1.5c0,6.2,0,12.5,0,18.7
		c0,0.8,0.2,1,1,1c2.6-0.1,5.2,0,7.8,0c1.2,0,1.4,0.2,1.4,1.4c0,1.2,0,2.5,0,3.7c0,0.8-0.3,1.2-1.1,1.2c-4.9,0-9.8,0-14.7,0
		c-0.9,0-1.2-0.3-1.2-1.2C52.3,22.3,52.4,18.1,52.4,14z"/>
	<path class="st0" d="M130.5,14c0-4.1,0-8.2,0-12.3c0-1.2,0.2-1.4,1.4-1.4c1.4,0,2.8,0,4.1,0c1.1,0,1.3,0.2,1.3,1.3
		c0,8.3,0,16.6,0,24.8c0,1-0.2,1.3-1.3,1.3c-1.4,0-2.8,0-4.2,0c-1.1,0-1.3-0.2-1.3-1.3C130.5,22.2,130.5,18.1,130.5,14z"/>
</g>
</svg>
