<?xml version="1.0" encoding="utf-8"?>
<!-- Generator: Adobe Illustrator 24.1.0, SVG Export Plug-In . SVG Version: 6.00 Build 0)  -->
<svg version="1.1" id="Layer_1" xmlns="http://www.w3.org/2000/svg" xmlns:xlink="http://www.w3.org/1999/xlink" x="0px" y="0px"
	 viewBox="0 0 131.2 55" style="enable-background:new 0 0 131.2 55;" xml:space="preserve">
<style type="text/css">
	.st0{fill:#17494D;}
</style>
<g>
	<path class="st0" d="M131.2,24c-0.1,0.1-0.1,0.2-0.1,0.3c-0.2,1.5-1,2.7-2,3.8c-4,4.2-8.5,7.8-13.4,11.1c-7.3,5-15.2,8.9-23.6,11.6
		c-4,1.3-8.1,2.3-12.2,3c-3.4,0.6-6.7,0.9-10.1,1.1c-2.6,0.1-5.3,0.2-7.9,0c-4.3-0.2-8.6-0.7-12.8-1.5c-8.6-1.7-16.8-4.6-24.5-8.7
		C18.3,41.4,12.4,37.5,7,32.8c-1.8-1.5-3.5-3.1-5.1-4.9C1.1,27,0.5,26,0.1,24.8c0-0.1-0.1-0.3-0.1-0.4c0-1.2,0-2.4,0-3.7
		c0-0.2,0-0.3,0.2-0.4s0.3,0,0.5,0.2C4.1,24.1,7.9,27.2,12,30c2.3,1.6,4.9,1.9,7.5,0.6c2.3-1.1,3.3-3.4,2.4-5.9
		c-0.3-1-0.9-1.7-1.7-2.4c-1.2-1-2.5-1.8-3.9-2.6c-1.7-1-3.4-2.1-4.8-3.4c-1.9-1.7-3.1-3.8-3.1-6.5c0-3.6,1.6-6.2,4.6-8.1
		c1.3-0.8,2.8-1.3,4.3-1.6c0.1,0,0.2,0,0.3-0.1c2,0,4,0,5.9,0c0.4,0.2,0.9,0.2,1.3,0.3c1,0.2,1.9,0.6,2.5,1.5c0.6,0.8,0.5,1.7,0,2.5
		s-1.3,1.1-2.2,1s-1.7-0.5-2.6-0.6c-1.5-0.3-2.9-0.3-4.3,0.1c-2.4,0.7-3.8,3.1-3.2,5.4c0.2,0.9,0.8,1.6,1.4,2.2
		c1.2,1.1,2.7,1.9,4.1,2.8c1.6,1,3.2,1.9,4.7,3.2c1.5,1.3,2.7,2.9,3.2,4.9c1.2,5.2-1.8,10.1-6.9,11.5c-0.3,0.1-0.6,0.2-1,0.3
		c9.6,5.1,19.6,8.5,30.3,10c20.8,3,40.6-0.1,59.3-9.7v-0.1c-0.4-0.1-0.7-0.3-1.1-0.4c-0.8-0.4-1.5-0.8-2-1.5c-0.8-1.2-0.3-2.8,1-3.1
		c0.5-0.1,1,0,1.5,0.2c1.3,0.6,2.6,0.9,4,0.9c1,0,1.9-0.2,2.7-0.8c1.3-0.9,1.6-2.7,0.6-4c-0.5-0.7-1.2-1.1-1.9-1.6
		c-1.2-0.8-2.4-1.4-3.6-2.1c-0.9-0.6-1.8-1.2-2.7-1.9c-1.3-1.2-2-2.6-2.2-4.3c-0.2-2.5,0.5-4.7,2.4-6.4c1.4-1.2,3-1.9,4.8-2.2
		s3.7-0.3,5.5,0c1,0.2,1.9,0.6,2.3,1.7c0.3,0.8,0.2,1.6-0.3,2.2c-0.5,0.7-1.3,0.8-2.1,0.6s-1.6-0.5-2.4-0.6
		c-0.9-0.1-1.7-0.1-2.5,0.2c-2.2,0.8-2.6,3.5-1.3,5.1c0.9,1,2,1.7,3.1,2.3c1.3,0.8,2.7,1.5,3.9,2.4c1.6,1.3,2.6,2.8,2.8,4.9
		c0,0.3,0.2,0.1,0.3,0c0.9-0.8,1.9-1.5,2.8-2.3c1.6-1.4,3.2-2.8,4.6-4.4c0.1-0.1,0.2-0.2,0.4-0.2c0.2,0.1,0.2,0.2,0.3,0.4
		c0,0.2,0,0.4,0.1,0.5C131.2,22.3,131.2,23.1,131.2,24z"/>
	<path class="st0" d="M77.8,0.3c0.3,0.1,0.5,0.2,0.8,0.3c0.9,0.4,1.3,1.2,1.3,2.1c0,7.7,0,15.5,0,23.2c0,1.3,0,2.5,0.3,3.8
		c0.1,0.5,0.3,0.9,0.5,1.2c0.4,0.6,1.3,0.8,2.1,0.6c0.2,0,0.3-0.1,0.5-0.2c0.8-0.3,1.6-0.1,2.1,0.5c0.5,0.7,0.4,1.7-0.1,2.3
		c-0.8,0.8-1.8,1.3-2.8,1.6c-1.8,0.5-3.6,0.3-5.3-0.6c-1.7-1-2.6-2.7-3-4.6c-0.1-0.5-0.1-1.1-0.1-1.7c0-8.6,0-17.3,0-25.9
		c0-1.4,0.6-2.1,1.9-2.6c0.1,0,0.2,0,0.2-0.1C76.6,0.3,77.2,0.3,77.8,0.3z"/>
	<path class="st0" d="M68.9,0.3c0.4,0.2,0.7,0.3,1.1,0.6c1.9,1.5,1.6,4.6-0.6,5.7c-1.7,0.8-3.8-0.2-4.3-2.1c-0.4-1.7,0.4-3.4,2-4
		c0.1,0,0.1,0,0.1-0.1C67.8,0.3,68.3,0.3,68.9,0.3z"/>
	<path class="st0" d="M36.5,11.5c1.7-2.3,3.7-3.6,6.5-3.3c2.8,0.3,4.5,2.1,5.4,4.7c0.2-0.4,0.4-0.7,0.6-1.1c0.8-1.3,1.9-2.4,3.3-3.1
		c2.2-1.1,6.1-0.8,8.1,2.4c0.9,1.5,1.3,3.2,1.6,5c0.1,1,0.2,2.1,0.2,3.1c0,4.5,0,9,0,13.5c0,1.7-0.7,2.5-2.4,2.9
		c-0.9,0.2-1.7,0.1-2.5-0.3c-0.9-0.4-1.4-1.1-1.4-2.1c0-1.8,0-3.6,0-5.3c0-3.4,0-6.7,0-10.1c0-1.1-0.1-2.2-0.5-3.2
		c-0.8-1.8-2.8-2.2-4.2-0.9c-0.9,0.8-1.3,1.9-1.6,3.1c-0.2,0.8-0.3,1.5-0.3,2.3c0,4.5,0,9.1,0,13.6c0,1.7-0.7,2.5-2.4,2.9
		c-0.9,0.2-1.7,0.1-2.5-0.3c-0.9-0.4-1.4-1.1-1.4-2.2c0-5,0-10,0-15c0-1.1-0.1-2.1-0.4-3.2c0-0.1-0.1-0.3-0.1-0.4
		c-0.8-1.8-2.7-2.2-4.1-0.9c-0.6,0.5-1,1.2-1.3,1.9c-0.4,1.1-0.7,2.2-0.7,3.4c0,4.6,0,9.3,0,13.9c0,1.6-0.8,2.5-2.4,2.8
		c-0.8,0.1-1.6,0-2.3-0.4c-0.8-0.5-1.1-1.2-1.1-2.1c0-5.6,0-11.3,0-16.9c0-1.5,0-3.1,0-4.6c-0.1-1.7,1.1-2.5,2.4-2.7
		c0.7-0.1,1.4,0,2,0.3C36,9.7,36.5,10.4,36.5,11.5z"/>
	<path class="st0" d="M96.8,8.3c1.6,0,3.1,0.3,4.5,1c2.7,1.4,4.1,4.1,3.8,7.1c-0.3,2.7-1.7,4.7-3.8,6.3c-1.9,1.4-4.1,2.1-6.5,2.4
		c-1,0.2-2.1,0.3-3.1,0.3c-0.3,0-0.3,0.1-0.3,0.4c0.4,1.6,1.1,3.1,2.3,4.3c1,1,2.3,1.5,3.7,1.6c1.3,0.1,2.6-0.1,3.8-0.5
		c0.8-0.3,1.4-0.1,1.8,0.5c0.5,0.6,0.6,1.4,0.2,2.1c-0.5,0.8-1.2,1.2-2,1.5c-1.7,0.7-3.4,0.9-5.2,0.8c-2.4-0.1-4.5-0.8-6.4-2.3
		c-1.7-1.4-2.9-3.1-3.6-5.2c-1.9-4.9-1.6-9.8,0.9-14.4c1.8-3.4,4.8-5.2,8.5-5.8C95.8,8.3,96.3,8.3,96.8,8.3z M99.1,15.6
		c0-0.4,0-0.7-0.1-1.1c-0.2-0.9-0.5-1.7-1.3-2.2c-1-0.7-2.1-0.5-3.1,0c-1.3,0.7-2.1,1.9-2.7,3.3c-0.8,2-0.9,4.1-0.8,6.2
		c0,0.2,0.1,0.2,0.2,0.2c1.6-0.2,3.2-0.5,4.6-1.3C97.9,19.5,99.1,17.9,99.1,15.6z"/>
	<path class="st0" d="M65.1,22.3c0-3.5,0-7.1,0-10.6c0-1.6,0.9-2.5,2.4-2.7c0.7-0.1,1.4,0,2,0.3c0.9,0.5,1.4,1.2,1.4,2.3
		c0,5.1,0,10.2,0,15.3c0,2,0,4,0,6c0,1.6-0.7,2.4-2.3,2.8c-0.9,0.2-1.8,0-2.6-0.5c-0.7-0.4-1-1.1-1-1.8c0-0.8,0-1.6,0-2.4
		C65.1,28.1,65.1,25.2,65.1,22.3z"/>
</g>
</svg>
