<?xml version="1.0" encoding="UTF-8"?>
<svg width="161px" height="50px" viewBox="0 0 161 50" version="1.1" xmlns="http://www.w3.org/2000/svg" xmlns:xlink="http://www.w3.org/1999/xlink">
    <title>Shape</title>
    <g id="Design-final" stroke="none" stroke-width="1" fill="none" fill-rule="evenodd">
        <g id="SMB-demo-landing-page-R2-design-2" transform="translate(-104.000000, -731.000000)" fill="#17494D" fill-rule="nonzero">
            <g id="53090586-0-airbnb" transform="translate(104.000000, 731.000000)">
                <path d="M84.7960092,12.5383309 C84.7960092,14.3288943 83.3432637,15.7712925 81.5398556,15.7712925 C79.7364475,15.7712925 78.283702,14.3288943 78.283702,12.5383309 C78.283702,10.7477676 79.6863529,9.30536931 81.5398556,9.30536931 C83.3933584,9.35510718 84.7960092,10.7975054 84.7960092,12.5383309 Z M71.3706376,19.053992 C71.3706376,19.3524192 71.3706376,19.849798 71.3706376,19.849798 C71.3706376,19.849798 69.8177027,17.8602831 66.5114545,17.8602831 C61.0511355,17.8602831 56.7930884,21.9885264 56.7930884,27.7083815 C56.7930884,33.3784988 61.0010408,37.5564799 66.5114545,37.5564799 C69.8677974,37.5564799 71.3706376,35.5172273 71.3706376,35.5172273 L71.3706376,36.3627711 C71.3706376,36.760674 71.6712056,37.0591012 72.071963,37.0591012 L76.1296312,37.0591012 L76.1296312,18.3576618 C76.1296312,18.3576618 72.4226256,18.3576618 72.071963,18.3576618 C71.6712056,18.3576618 71.3706376,18.7058269 71.3706376,19.053992 Z M71.3706376,31.0408189 C70.6192175,32.135052 69.1163774,33.0800716 67.3129692,33.0800716 C64.1069103,33.0800716 61.6522714,31.0905568 61.6522714,27.7083815 C61.6522714,24.3262063 64.1069103,22.3366915 67.3129692,22.3366915 C69.0662827,22.3366915 70.6693121,23.3314488 71.3706376,24.3759442 L71.3706376,31.0408189 Z M79.1353115,18.3576618 L83.9443998,18.3576618 L83.9443998,37.0591012 L79.1353115,37.0591012 L79.1353115,18.3576618 Z M150.971069,17.8602831 C147.664821,17.8602831 146.111886,19.849798 146.111886,19.849798 L146.111886,9.35510718 L141.302798,9.35510718 L141.302798,37.0591012 C141.302798,37.0591012 145.009803,37.0591012 145.360466,37.0591012 C145.761224,37.0591012 146.061792,36.7109362 146.061792,36.3627711 L146.061792,35.5172273 C146.061792,35.5172273 147.614726,37.5564799 150.920974,37.5564799 C156.381293,37.5564799 160.63934,33.3784988 160.63934,27.7083815 C160.63934,22.0382643 156.381293,17.8602831 150.971069,17.8602831 Z M150.169555,33.0303337 C148.316052,33.0303337 146.863306,32.0853141 146.111886,30.991081 L146.111886,24.3262063 C146.863306,23.3314488 148.466336,22.2869536 150.169555,22.2869536 C153.375613,22.2869536 155.830252,24.2764684 155.830252,27.6586437 C155.830252,31.0408189 153.375613,33.0303337 150.169555,33.0303337 Z M138.798064,25.967556 L138.798064,37.1088391 L133.988976,37.1088391 L133.988976,26.5146726 C133.988976,23.4309246 132.987082,22.1874779 130.28197,22.1874779 C128.829224,22.1874779 127.326384,22.933546 126.374585,24.0277791 L126.374585,37.0591012 L121.565498,37.0591012 L121.565498,18.3576618 L125.372692,18.3576618 C125.773449,18.3576618 126.074017,18.7058269 126.074017,19.053992 L126.074017,19.849798 C127.476668,18.4073997 129.330171,17.8602831 131.183674,17.8602831 C133.28765,17.8602831 135.040964,18.4571375 136.443615,19.6508465 C138.146833,21.0435068 138.798064,22.8340702 138.798064,25.967556 Z M109.893439,17.8602831 C106.587191,17.8602831 105.034256,19.849798 105.034256,19.849798 L105.034256,9.35510718 L100.225167,9.35510718 L100.225167,37.0591012 C100.225167,37.0591012 103.932173,37.0591012 104.282836,37.0591012 C104.683593,37.0591012 104.984161,36.7109362 104.984161,36.3627711 L104.984161,35.5172273 C104.984161,35.5172273 106.537096,37.5564799 109.843345,37.5564799 C115.303664,37.5564799 119.561711,33.3784988 119.561711,27.7083815 C119.611806,22.0382643 115.353758,17.8602831 109.893439,17.8602831 Z M109.091924,33.0303337 C107.238422,33.0303337 105.785676,32.0853141 105.034256,30.991081 L105.034256,24.3262063 C105.785676,23.3314488 107.388706,22.2869536 109.091924,22.2869536 C112.297983,22.2869536 114.752622,24.2764684 114.752622,27.6586437 C114.752622,31.0408189 112.297983,33.0303337 109.091924,33.0303337 Z M96.0673096,17.8602831 C97.5200551,17.8602831 98.2714752,18.1089724 98.2714752,18.1089724 L98.2714752,22.535643 C98.2714752,22.535643 94.2639019,21.1927204 91.7591684,24.0277791 L91.7591684,37.1088391 L86.9500801,37.1088391 L86.9500801,18.3576618 C86.9500801,18.3576618 90.6570857,18.3576618 91.0077484,18.3576618 C91.4085058,18.3576618 91.7090737,18.7058269 91.7090737,19.053992 L91.7090737,19.849798 C92.6107778,18.8053026 94.56447,17.8602831 96.0673096,17.8602831 Z M46.1229236,35.3680136 C45.8724502,34.7711592 45.6219769,34.1245668 45.3715035,33.5774503 C44.9707461,32.6821686 44.5699889,31.8366248 44.2193262,31.0408189 L44.1692315,30.991081 C40.7126992,23.5304003 37.0056935,15.970244 33.0983093,8.50956338 L32.9480253,8.21113615 C32.5472679,7.46506809 32.1465105,6.66926216 31.7457532,5.87345622 C31.2448065,4.97817455 30.7438598,4.033155 29.942345,3.13787333 C28.3393156,1.14835849 26.0349607,0.0541253307 23.5803219,0.0541253307 C21.0755883,0.0541253307 18.8213282,1.14835849 17.1682041,3.03839758 C16.416784,3.93367926 15.8657426,4.8786988 15.3647959,5.77398048 C14.9640385,6.56978641 14.5632812,7.36559234 14.1625239,8.11166041 L14.0122398,8.41008763 C10.1549502,15.8707682 6.39784991,23.4309246 2.94131764,30.8916053 L2.89122298,30.991081 C2.54056028,31.7868869 2.13980291,32.6324307 1.73904555,33.5277124 C1.4885722,34.0748289 1.23809885,34.6716834 0.987625499,35.3182758 C0.336394779,37.158577 0.136016097,38.8994025 0.386489449,40.6899658 C0.937530827,44.4203062 3.44226435,47.553792 6.89879661,48.9464524 C8.20125804,49.493569 9.55381411,49.7422583 10.9564649,49.7422583 C11.3572223,49.7422583 11.858169,49.6925205 12.2589263,49.6427826 C13.9120505,49.4438311 15.6152693,48.8967145 17.2683934,47.9516949 C19.3222749,46.807724 21.275967,45.1663742 23.4801325,42.7789564 C25.6842981,45.1663742 27.6880849,46.807724 29.6918717,47.9516949 C31.3449958,48.8967145 33.0482146,49.4438311 34.7013387,49.6427826 C35.1020961,49.6925205 35.6030428,49.7422583 36.0038002,49.7422583 C37.4064509,49.7422583 38.8091017,49.493569 40.0614685,48.9464524 C43.5680954,47.553792 46.0227343,44.3705683 46.5737757,40.6899658 C46.974533,38.9491404 46.7741543,37.2083148 46.1229236,35.3680136 Z M23.5302272,37.9543829 C20.825115,34.5722077 19.0718015,31.3889839 18.4706655,28.7031389 C18.2201921,27.5591679 18.1700974,26.5644105 18.3203815,25.6691289 C18.4205708,24.8733229 18.7211388,24.1769927 19.1218962,23.5801382 C20.073695,22.2372157 21.6767244,21.3916719 23.5302272,21.3916719 C25.3837301,21.3916719 27.0368542,22.1874779 27.9385583,23.5801382 C28.3393156,24.1769927 28.6398836,24.8733229 28.7400729,25.6691289 C28.8903569,26.5644105 28.8402623,27.6089058 28.5897889,28.7031389 C27.9886529,31.339246 26.2353394,34.5224698 23.5302272,37.9543829 Z M43.5180007,40.2920628 C43.167338,42.8784321 41.4140246,45.1166363 38.9593858,46.1113937 C37.7571136,46.6087725 36.4546522,46.7579861 35.1521908,46.6087725 C33.8998241,46.4595588 32.6474573,46.0616559 31.3449958,45.3155878 C29.5415877,44.3208304 27.7381796,42.7789564 25.6342034,40.4910143 C28.9404516,36.4622468 30.9442385,32.7816444 31.6956585,29.4989449 C32.0463212,27.9570709 32.0964159,26.5644105 31.9461318,25.2712259 C31.7457532,24.0277791 31.2949011,22.8838081 30.5935758,21.8890506 C29.0406409,19.6508465 26.4357181,18.3576618 23.5302272,18.3576618 C20.6247363,18.3576618 18.0198134,19.7005843 16.4668787,21.8890506 C15.7655533,22.8838081 15.3147012,24.0277791 15.1143225,25.2712259 C14.9139438,26.5644105 14.9640385,28.0068088 15.3647959,29.4989449 C16.116216,32.7816444 18.1700974,36.5119847 21.426251,40.5407522 C19.3723696,42.8286942 17.5188668,44.3705683 15.7154586,45.3653256 C14.4129972,46.1113937 13.1606304,46.5092967 11.9082637,46.6585103 C10.5557076,46.807724 9.25324612,46.6087725 8.10106871,46.1611316 C5.64642986,45.1663742 3.89311638,42.92817 3.54245369,40.3418007 C3.39216968,39.098354 3.49235902,37.8549072 3.99330573,36.4622468 C4.14358974,35.9648681 4.39406309,35.4674894 4.64453644,34.8706349 C4.99519914,34.0748289 5.39595649,33.2292852 5.79671386,32.3837414 L5.84680854,32.2842656 C9.3033408,24.8733229 13.0103464,17.3131665 16.8676361,9.9519616 L17.0179201,9.65353436 C17.4186775,8.90746634 17.8194347,8.11166041 18.2201921,7.36559234 C18.6209495,6.56978641 19.0718015,5.82371835 19.6228429,5.17712603 C20.674831,3.98341713 22.0774818,3.33682481 23.6304165,3.33682481 C25.1833514,3.33682481 26.5860021,3.98341713 27.6379902,5.17712603 C28.1890316,5.82371835 28.6398836,6.56978641 29.0406409,7.36559234 C29.4413983,8.11166041 29.8421557,8.90746634 30.2429131,9.65353436 L30.3931971,9.9519616 C34.200392,17.3629044 37.9073976,24.9230608 41.3639299,32.3340035 L41.3639299,32.3837414 C41.7646873,33.1795473 42.11535,34.0748289 42.5161073,34.8706349 C42.7665807,35.4674894 43.017054,35.9648681 43.167338,36.4622468 C43.5680954,37.7554314 43.7183794,38.9988782 43.5180007,40.2920628 Z" id="Shape"></path>
            </g>
        </g>
    </g>
</svg>