<?xml version="1.0" encoding="UTF-8"?><svg xmlns="http://www.w3.org/2000/svg" width="58" height="21" fill="#17494d" xmlns:v="https://vecta.io/nano"><path d="M3.32 14.998c.244.678.58 1.258 1.013 1.74a4.37 4.37 0 0 0 1.533 1.106c.59.256 1.233.383 1.927.383.675 0 1.308-.133 1.9-.398a4.67 4.67 0 0 0 1.547-1.121c.44-.482.783-1.057 1.027-1.725s.366-1.416.366-2.242V0h2.953v20.646H12.66V18.73a6.77 6.77 0 0 1-2.32 1.68c-.9.392-1.852.6-2.883.6-1.05 0-2.03-.192-2.94-.575a6.87 6.87 0 0 1-2.363-1.637C1.49 18.09.96 17.23.577 16.237S0 14.138 0 12.92V0h2.953v12.742c0 .826.122 1.578.366 2.256zM21.04 0v7.52a7.56 7.56 0 0 1 2.295-1.637 6.65 6.65 0 0 1 2.833-.605c1.058 0 2.05.206 2.975.62a7.59 7.59 0 0 1 2.408 1.681 7.94 7.94 0 0 1 1.615 2.507 7.98 7.98 0 0 1 .595 3.067c0 1.08-.198 2.1-.595 3.053a7.98 7.98 0 0 1-1.615 2.492 7.59 7.59 0 0 1-2.408 1.681c-.926.413-1.917.62-2.975.62-1.02 0-1.97-.202-2.847-.605a7.52 7.52 0 0 1-2.309-1.637v1.888H18.18V0h2.86zm.326 15.2a5.15 5.15 0 0 0 1.062 1.652 5.09 5.09 0 0 0 1.587 1.12 4.66 4.66 0 0 0 1.955.413c.68 0 1.322-.138 1.926-.413a4.98 4.98 0 0 0 1.572-1.12A5.49 5.49 0 0 0 30.53 15.2a5.21 5.21 0 0 0 .397-2.035c0-.727-.132-1.4-.397-2.05S29.9 9.92 29.468 9.45a4.77 4.77 0 0 0-1.572-1.106 4.74 4.74 0 0 0-1.926-.398 4.74 4.74 0 0 0-1.926.398 4.93 4.93 0 0 0-1.587 1.106c-.454.472-.812 1.027-1.077 1.666s-.397 1.322-.397 2.05.127 1.406.382 2.035zm13.83-4.957c.38-.935.9-1.76 1.566-2.47s1.452-1.272 2.363-1.68a7.16 7.16 0 0 1 2.96-.614c1.044 0 2.012.195 2.904.585a6.89 6.89 0 0 1 2.306 1.622 7.36 7.36 0 0 1 1.51 2.455c.362.955.54 1.973.54 3.084v.965H37.53a5.09 5.09 0 0 0 .569 1.681c.285.516.64.965 1.067 1.345a4.86 4.86 0 0 0 1.452.892 4.63 4.63 0 0 0 1.722.322c1.727 0 3.122-.73 4.184-2.192l2.078 1.578a7.79 7.79 0 0 1-2.676 2.339c-1.063.565-2.258.848-3.587.848a7.83 7.83 0 0 1-3.032-.585 7.36 7.36 0 0 1-2.448-1.637c-.693-.702-1.238-1.525-1.637-2.47s-.598-1.973-.598-3.084c0-1.052.2-2.046.57-2.982zm4-1.155c-.807.692-1.343 1.613-1.608 2.762h8.853c-.247-1.15-.773-2.07-1.58-2.762S43.1 8.05 42.028 8.05a4.21 4.21 0 0 0-2.832 1.038zm15.464.97c-.575.663-.862 1.563-.862 2.7V21h-2.722V6.505h2.695v1.8a3.93 3.93 0 0 1 1.334-1.393c.548-.34 1.2-.512 1.954-.512H58v2.672h-1.132a2.79 2.79 0 0 0-2.21.995z"/></svg>
