<svg width="11" height="10" viewBox="0 0 11 10" fill="none" xmlns="http://www.w3.org/2000/svg">
<path d="M10.9991 6.0244L11 4.04028L9.5828 3.89886C9.50559 3.66255 9.40393 3.43359 9.27844 3.21443L10.185 2.18839L8.64211 0.785042L7.52995 1.59661C7.29113 1.47865 7.0411 1.38214 6.78253 1.30786L6.62542 0H4.44282L4.28794 1.28867C4.03049 1.35806 3.78067 1.44968 3.54185 1.56252L2.41441 0.736874L0.868828 2.13778L1.76013 3.15015C1.62996 3.36706 1.52333 3.5944 1.44162 3.82907L0.00287891 3.97049L0 5.95461L1.4172 6.09704C1.49396 6.33354 1.59541 6.5625 1.72088 6.78168L0.813184 7.80711L2.35473 9.2117L3.46779 8.40095C3.70661 8.5191 3.95643 8.61583 4.21478 8.69031L4.37078 9.99836L5.50045 9.99918L6.55336 10L6.70936 8.71154C6.96927 8.64155 7.22133 8.5491 7.46217 8.43503L8.59048 9.25986L10.1347 7.85774L9.24251 6.8462C9.37226 6.62907 9.47865 6.40175 9.56033 6.16687L10.9991 6.0244ZM5.50045 6.79127C4.41207 6.79127 3.52975 5.9891 3.52975 4.99959C3.52975 4.01008 4.41207 3.20791 5.50045 3.20791C6.58883 3.20791 7.47115 4.01008 7.47115 4.99959C7.47115 5.9891 6.58883 6.79127 5.50045 6.79127Z" fill="white"/>
</svg>
