<svg width="15" height="14" viewBox="0 0 15 14" fill="none" xmlns="http://www.w3.org/2000/svg">
<path d="M7.5 14C9.48912 14 11.3968 13.2625 12.8033 11.9497C14.2098 10.637 15 8.85652 15 7C15 5.14348 14.2098 3.36301 12.8033 2.05025C11.3968 0.737498 9.48912 0 7.5 0C5.51088 0 3.60322 0.737498 2.1967 2.05025C0.790176 3.36301 0 5.14348 0 7C0 8.85652 0.790176 10.637 2.1967 11.9497C3.60322 13.2625 5.51088 14 7.5 14ZM7.5 3.5C7.88965 3.5 8.20312 3.79258 8.20312 4.15625V7.21875C8.20312 7.58242 7.88965 7.875 7.5 7.875C7.11035 7.875 6.79688 7.58242 6.79688 7.21875V4.15625C6.79688 3.79258 7.11035 3.5 7.5 3.5ZM6.5625 9.625C6.5625 9.39294 6.66127 9.17038 6.83709 9.00628C7.0129 8.84219 7.25136 8.75 7.5 8.75C7.74864 8.75 7.9871 8.84219 8.16291 9.00628C8.33873 9.17038 8.4375 9.39294 8.4375 9.625C8.4375 9.85706 8.33873 10.0796 8.16291 10.2437C7.9871 10.4078 7.74864 10.5 7.5 10.5C7.25136 10.5 7.0129 10.4078 6.83709 10.2437C6.66127 10.0796 6.5625 9.85706 6.5625 9.625Z" fill="#FFFF00"/>
</svg>
