<svg width="12" height="14" viewBox="0 0 12 14" fill="none" xmlns="http://www.w3.org/2000/svg">
<path d="M6 14C7.5913 14 9.11742 13.2625 10.2426 11.9497C11.3679 10.637 12 8.85652 12 7C12 5.14348 11.3679 3.36301 10.2426 2.05025C9.11742 0.737498 7.5913 0 6 0C4.4087 0 2.88258 0.737498 1.75736 2.05025C0.632141 3.36301 0 5.14348 0 7C0 8.85652 0.632141 10.637 1.75736 11.9497C2.88258 13.2625 4.4087 14 6 14ZM6 3.5C6.31172 3.5 6.5625 3.79258 6.5625 4.15625V7.21875C6.5625 7.58242 6.31172 7.875 6 7.875C5.68828 7.875 5.4375 7.58242 5.4375 7.21875V4.15625C5.4375 3.79258 5.68828 3.5 6 3.5ZM5.25 9.625C5.25 9.39294 5.32902 9.17038 5.46967 9.00628C5.61032 8.84219 5.80109 8.75 6 8.75C6.19891 8.75 6.38968 8.84219 6.53033 9.00628C6.67098 9.17038 6.75 9.39294 6.75 9.625C6.75 9.85706 6.67098 10.0796 6.53033 10.2437C6.38968 10.4078 6.19891 10.5 6 10.5C5.80109 10.5 5.61032 10.4078 5.46967 10.2437C5.32902 10.0796 5.25 9.85706 5.25 9.625Z" fill="#FF0000"/>
</svg>
