<?xml version="1.0" standalone="no"?><svg xmlns="http://www.w3.org/2000/svg" viewBox="0 0 1440 320"><path fill="#09121C" fill-opacity="1" d="M0,160L30,170.7C60,181,120,203,180,186.7C240,171,300,117,360,117.3C420,117,480,171,540,181.3C600,192,660,160,720,170.7C780,181,840,235,900,240C960,245,1020,203,1080,170.7C1140,139,1200,117,1260,133.3C1320,149,1380,203,1410,229.3L1440,256L1440,0L1410,0C1380,0,1320,0,1260,0C1200,0,1140,0,1080,0C1020,0,960,0,900,0C840,0,780,0,720,0C660,0,600,0,540,0C480,0,420,0,360,0C300,0,240,0,180,0C120,0,60,0,30,0L0,0Z"></path></svg>