<?xml version="1.0" standalone="no"?><svg xmlns="http://www.w3.org/2000/svg" viewBox="0 0 1440 320"><path fill="ffffff" fill-opacity="0" d="M0,0L34.3,21.3C68.6,43,137,85,206,128C274.3,171,343,213,411,229.3C480,245,549,235,617,240C685.7,245,754,267,823,250.7C891.4,235,960,181,1029,165.3C1097.1,149,1166,171,1234,170.7C1302.9,171,1371,149,1406,138.7L1440,128L1440,0L1405.7,0C1371.4,0,1303,0,1234,0C1165.7,0,1097,0,1029,0C960,0,891,0,823,0C754.3,0,686,0,617,0C548.6,0,480,0,411,0C342.9,0,274,0,206,0C137.1,0,69,0,34,0L0,0Z"></path></svg>